<svg id="mySVG" vertsion="1.1" xmlns="http://www.w3.org/2000/svg" xmlns:xlink="http://www.w3.org/1999/xlink" style="width: 550px; height: 4901px;"><text x="5" y="18" text-anchor="start">Mon</text><text x="83.57142857142857" y="18" text-anchor="start">Tue</text><text x="162.14285714285714" y="18" text-anchor="start">Wed</text><text x="240.71428571428572" y="18" text-anchor="start">Thu</text><text x="319.2857142857143" y="18" text-anchor="start">Fri</text><text x="397.85714285714283" y="18" text-anchor="start">Sat</text><text x="476.42857142857144" y="18" text-anchor="start">Sun</text><text x="5" y="81.5" text-anchor="start" font-size="36px">March</text><text x="73.57142857142857" y="18" text-anchor="end">26</text><text x="152.14285714285714" y="18" text-anchor="end">27</text><text x="230.71428571428572" y="18" text-anchor="end">28</text><text x="309.2857142857143" y="18" text-anchor="end">1</text><text x="387.85714285714283" y="18" text-anchor="end">2</text><text x="466.42857142857144" y="18" text-anchor="end">3</text><text x="545" y="18" text-anchor="end">4</text><rect x="5" y="87.5" height="1" width="550" fill="grey"/><text x="5" y="169" text-anchor="start">Week 10</text><text x="73.57142857142857" y="105.5" text-anchor="end">5</text><text x="152.14285714285714" y="105.5" text-anchor="end">6</text><text x="230.71428571428572" y="105.5" text-anchor="end">7</text><text x="309.2857142857143" y="105.5" text-anchor="end">8</text><text x="387.85714285714283" y="105.5" text-anchor="end">9</text><text x="466.42857142857144" y="105.5" text-anchor="end">10</text><text x="545" y="105.5" text-anchor="end">11</text><rect x="5" y="175" height="1" width="550" fill="grey"/><text x="5" y="256.5" text-anchor="start">11</text><text x="73.57142857142857" y="193" text-anchor="end">12</text><text x="152.14285714285714" y="193" text-anchor="end">13</text><text x="230.71428571428572" y="193" text-anchor="end">14</text><text x="309.2857142857143" y="193" text-anchor="end">15</text><text x="387.85714285714283" y="193" text-anchor="end">16</text><text x="466.42857142857144" y="193" text-anchor="end">17</text><text x="545" y="193" text-anchor="end">18</text><rect x="5" y="262.5" height="1" width="550" fill="grey"/><text x="5" y="344" text-anchor="start">12</text><text x="73.57142857142857" y="280.5" text-anchor="end">19</text><text x="152.14285714285714" y="280.5" text-anchor="end">20</text><text x="230.71428571428572" y="280.5" text-anchor="end">21</text><text x="309.2857142857143" y="280.5" text-anchor="end">22</text><text x="387.85714285714283" y="280.5" text-anchor="end">23</text><text x="466.42857142857144" y="280.5" text-anchor="end">24</text><text x="545" y="280.5" text-anchor="end">25</text><rect x="5" y="350" height="1" width="550" fill="pink"/><text x="5" y="368" text-anchor="start">Mon</text><text x="83.57142857142857" y="368" text-anchor="start">Tue</text><text x="162.14285714285714" y="368" text-anchor="start">Wed</text><text x="240.71428571428572" y="368" text-anchor="start">Thu</text><text x="319.2857142857143" y="368" text-anchor="start">Fri</text><text x="397.85714285714283" y="368" text-anchor="start">Sat</text><text x="476.42857142857144" y="368" text-anchor="start">Sun</text><text x="5" y="414" text-anchor="start" font-size="36px">April</text><text x="73.57142857142857" y="368" text-anchor="end">26</text><text x="152.14285714285714" y="368" text-anchor="end">27</text><text x="230.71428571428572" y="368" text-anchor="end">28</text><text x="309.2857142857143" y="368" text-anchor="end">29</text><text x="387.85714285714283" y="368" text-anchor="end">30</text><text x="466.42857142857144" y="368" text-anchor="end">31</text><text x="545" y="368" text-anchor="end">1</text><rect x="5" y="420" height="1" width="550" fill="grey"/><text x="5" y="484" text-anchor="start">Week 14</text><text x="73.57142857142857" y="438" text-anchor="end">2</text><text x="152.14285714285714" y="438" text-anchor="end">3</text><text x="230.71428571428572" y="438" text-anchor="end">4</text><text x="309.2857142857143" y="438" text-anchor="end">5</text><text x="387.85714285714283" y="438" text-anchor="end">6</text><text x="466.42857142857144" y="438" text-anchor="end">7</text><text x="545" y="438" text-anchor="end">8</text><rect x="5" y="490" height="1" width="550" fill="grey"/><text x="5" y="554" text-anchor="start">15</text><text x="73.57142857142857" y="508" text-anchor="end">9</text><text x="152.14285714285714" y="508" text-anchor="end">10</text><text x="230.71428571428572" y="508" text-anchor="end">11</text><text x="309.2857142857143" y="508" text-anchor="end">12</text><text x="387.85714285714283" y="508" text-anchor="end">13</text><text x="466.42857142857144" y="508" text-anchor="end">14</text><text x="545" y="508" text-anchor="end">15</text><rect x="5" y="560" height="1" width="550" fill="grey"/><text x="5" y="624" text-anchor="start">16</text><text x="73.57142857142857" y="578" text-anchor="end">16</text><text x="152.14285714285714" y="578" text-anchor="end">17</text><text x="230.71428571428572" y="578" text-anchor="end">18</text><text x="309.2857142857143" y="578" text-anchor="end">19</text><text x="387.85714285714283" y="578" text-anchor="end">20</text><text x="466.42857142857144" y="578" text-anchor="end">21</text><text x="545" y="578" text-anchor="end">22</text><rect x="5" y="630" height="1" width="550" fill="grey"/><text x="5" y="694" text-anchor="start">17</text><text x="73.57142857142857" y="648" text-anchor="end">23</text><text x="152.14285714285714" y="648" text-anchor="end">24</text><text x="230.71428571428572" y="648" text-anchor="end">25</text><text x="309.2857142857143" y="648" text-anchor="end">26</text><text x="387.85714285714283" y="648" text-anchor="end">27</text><text x="466.42857142857144" y="648" text-anchor="end">28</text><text x="545" y="648" text-anchor="end">29</text><rect x="5" y="700" height="1" width="550" fill="pink"/><text x="5" y="718" text-anchor="start">Mon</text><text x="83.57142857142857" y="718" text-anchor="start">Tue</text><text x="162.14285714285714" y="718" text-anchor="start">Wed</text><text x="240.71428571428572" y="718" text-anchor="start">Thu</text><text x="319.2857142857143" y="718" text-anchor="start">Fri</text><text x="397.85714285714283" y="718" text-anchor="start">Sat</text><text x="476.42857142857144" y="718" text-anchor="start">Sun</text><text x="5" y="781.5" text-anchor="start" font-size="36px">May</text><text x="73.57142857142857" y="718" text-anchor="end">30</text><text x="152.14285714285714" y="718" text-anchor="end">1</text><text x="230.71428571428572" y="718" text-anchor="end">2</text><text x="309.2857142857143" y="718" text-anchor="end">3</text><text x="387.85714285714283" y="718" text-anchor="end">4</text><text x="466.42857142857144" y="718" text-anchor="end">5</text><text x="545" y="718" text-anchor="end">6</text><rect x="5" y="787.5" height="1" width="550" fill="grey"/><text x="5" y="869" text-anchor="start">Week 19</text><text x="73.57142857142857" y="805.5" text-anchor="end">7</text><text x="152.14285714285714" y="805.5" text-anchor="end">8</text><text x="230.71428571428572" y="805.5" text-anchor="end">9</text><text x="309.2857142857143" y="805.5" text-anchor="end">10</text><text x="387.85714285714283" y="805.5" text-anchor="end">11</text><text x="466.42857142857144" y="805.5" text-anchor="end">12</text><text x="545" y="805.5" text-anchor="end">13</text><rect x="5" y="875" height="1" width="550" fill="grey"/><text x="5" y="956.5" text-anchor="start">20</text><text x="73.57142857142857" y="893" text-anchor="end">14</text><text x="152.14285714285714" y="893" text-anchor="end">15</text><text x="230.71428571428572" y="893" text-anchor="end">16</text><text x="309.2857142857143" y="893" text-anchor="end">17</text><text x="387.85714285714283" y="893" text-anchor="end">18</text><text x="466.42857142857144" y="893" text-anchor="end">19</text><text x="545" y="893" text-anchor="end">20</text><rect x="5" y="962.5" height="1" width="550" fill="grey"/><text x="5" y="1044" text-anchor="start">21</text><text x="73.57142857142857" y="980.5" text-anchor="end">21</text><text x="152.14285714285714" y="980.5" text-anchor="end">22</text><text x="230.71428571428572" y="980.5" text-anchor="end">23</text><text x="309.2857142857143" y="980.5" text-anchor="end">24</text><text x="387.85714285714283" y="980.5" text-anchor="end">25</text><text x="466.42857142857144" y="980.5" text-anchor="end">26</text><text x="545" y="980.5" text-anchor="end">27</text><rect x="5" y="1050" height="1" width="550" fill="pink"/><text x="5" y="1068" text-anchor="start">Mon</text><text x="83.57142857142857" y="1068" text-anchor="start">Tue</text><text x="162.14285714285714" y="1068" text-anchor="start">Wed</text><text x="240.71428571428572" y="1068" text-anchor="start">Thu</text><text x="319.2857142857143" y="1068" text-anchor="start">Fri</text><text x="397.85714285714283" y="1068" text-anchor="start">Sat</text><text x="476.42857142857144" y="1068" text-anchor="start">Sun</text><text x="5" y="1131.5" text-anchor="start" font-size="36px">June</text><text x="73.57142857142857" y="1068" text-anchor="end">28</text><text x="152.14285714285714" y="1068" text-anchor="end">29</text><text x="230.71428571428572" y="1068" text-anchor="end">30</text><text x="309.2857142857143" y="1068" text-anchor="end">31</text><text x="387.85714285714283" y="1068" text-anchor="end">1</text><text x="466.42857142857144" y="1068" text-anchor="end">2</text><text x="545" y="1068" text-anchor="end">3</text><rect x="5" y="1137.5" height="1" width="550" fill="grey"/><text x="5" y="1219" text-anchor="start">Week 23</text><text x="73.57142857142857" y="1155.5" text-anchor="end">4</text><text x="152.14285714285714" y="1155.5" text-anchor="end">5</text><text x="230.71428571428572" y="1155.5" text-anchor="end">6</text><text x="309.2857142857143" y="1155.5" text-anchor="end">7</text><text x="387.85714285714283" y="1155.5" text-anchor="end">8</text><text x="466.42857142857144" y="1155.5" text-anchor="end">9</text><text x="545" y="1155.5" text-anchor="end">10</text><rect x="5" y="1225" height="1" width="550" fill="grey"/><text x="5" y="1306.5" text-anchor="start">24</text><text x="73.57142857142857" y="1243" text-anchor="end">11</text><text x="152.14285714285714" y="1243" text-anchor="end">12</text><text x="230.71428571428572" y="1243" text-anchor="end">13</text><text x="309.2857142857143" y="1243" text-anchor="end">14</text><text x="387.85714285714283" y="1243" text-anchor="end">15</text><text x="466.42857142857144" y="1243" text-anchor="end">16</text><text x="545" y="1243" text-anchor="end">17</text><rect x="5" y="1312.5" height="1" width="550" fill="grey"/><text x="5" y="1394" text-anchor="start">25</text><text x="73.57142857142857" y="1330.5" text-anchor="end">18</text><text x="152.14285714285714" y="1330.5" text-anchor="end">19</text><text x="230.71428571428572" y="1330.5" text-anchor="end">20</text><text x="309.2857142857143" y="1330.5" text-anchor="end">21</text><text x="387.85714285714283" y="1330.5" text-anchor="end">22</text><text x="466.42857142857144" y="1330.5" text-anchor="end">23</text><text x="545" y="1330.5" text-anchor="end">24</text><rect x="5" y="1400" height="1" width="550" fill="pink"/><text x="5" y="1418" text-anchor="start">Mon</text><text x="83.57142857142857" y="1418" text-anchor="start">Tue</text><text x="162.14285714285714" y="1418" text-anchor="start">Wed</text><text x="240.71428571428572" y="1418" text-anchor="start">Thu</text><text x="319.2857142857143" y="1418" text-anchor="start">Fri</text><text x="397.85714285714283" y="1418" text-anchor="start">Sat</text><text x="476.42857142857144" y="1418" text-anchor="start">Sun</text><text x="5" y="1464" text-anchor="start" font-size="36px">July</text><text x="73.57142857142857" y="1418" text-anchor="end">25</text><text x="152.14285714285714" y="1418" text-anchor="end">26</text><text x="230.71428571428572" y="1418" text-anchor="end">27</text><text x="309.2857142857143" y="1418" text-anchor="end">28</text><text x="387.85714285714283" y="1418" text-anchor="end">29</text><text x="466.42857142857144" y="1418" text-anchor="end">30</text><text x="545" y="1418" text-anchor="end">1</text><rect x="5" y="1470" height="1" width="550" fill="grey"/><text x="5" y="1534" text-anchor="start">Week 27</text><text x="73.57142857142857" y="1488" text-anchor="end">2</text><text x="152.14285714285714" y="1488" text-anchor="end">3</text><text x="230.71428571428572" y="1488" text-anchor="end">4</text><text x="309.2857142857143" y="1488" text-anchor="end">5</text><text x="387.85714285714283" y="1488" text-anchor="end">6</text><text x="466.42857142857144" y="1488" text-anchor="end">7</text><text x="545" y="1488" text-anchor="end">8</text><rect x="5" y="1540" height="1" width="550" fill="grey"/><text x="5" y="1604" text-anchor="start">28</text><text x="73.57142857142857" y="1558" text-anchor="end">9</text><text x="152.14285714285714" y="1558" text-anchor="end">10</text><text x="230.71428571428572" y="1558" text-anchor="end">11</text><text x="309.2857142857143" y="1558" text-anchor="end">12</text><text x="387.85714285714283" y="1558" text-anchor="end">13</text><text x="466.42857142857144" y="1558" text-anchor="end">14</text><text x="545" y="1558" text-anchor="end">15</text><rect x="5" y="1610" height="1" width="550" fill="grey"/><text x="5" y="1674" text-anchor="start">29</text><text x="73.57142857142857" y="1628" text-anchor="end">16</text><text x="152.14285714285714" y="1628" text-anchor="end">17</text><text x="230.71428571428572" y="1628" text-anchor="end">18</text><text x="309.2857142857143" y="1628" text-anchor="end">19</text><text x="387.85714285714283" y="1628" text-anchor="end">20</text><text x="466.42857142857144" y="1628" text-anchor="end">21</text><text x="545" y="1628" text-anchor="end">22</text><rect x="5" y="1680" height="1" width="550" fill="grey"/><text x="5" y="1744" text-anchor="start">30</text><text x="73.57142857142857" y="1698" text-anchor="end">23</text><text x="152.14285714285714" y="1698" text-anchor="end">24</text><text x="230.71428571428572" y="1698" text-anchor="end">25</text><text x="309.2857142857143" y="1698" text-anchor="end">26</text><text x="387.85714285714283" y="1698" text-anchor="end">27</text><text x="466.42857142857144" y="1698" text-anchor="end">28</text><text x="545" y="1698" text-anchor="end">29</text><rect x="5" y="1750" height="1" width="550" fill="pink"/><text x="5" y="1768" text-anchor="start">Mon</text><text x="83.57142857142857" y="1768" text-anchor="start">Tue</text><text x="162.14285714285714" y="1768" text-anchor="start">Wed</text><text x="240.71428571428572" y="1768" text-anchor="start">Thu</text><text x="319.2857142857143" y="1768" text-anchor="start">Fri</text><text x="397.85714285714283" y="1768" text-anchor="start">Sat</text><text x="476.42857142857144" y="1768" text-anchor="start">Sun</text><text x="5" y="1831.5" text-anchor="start" font-size="36px">August</text><text x="73.57142857142857" y="1768" text-anchor="end">30</text><text x="152.14285714285714" y="1768" text-anchor="end">31</text><text x="230.71428571428572" y="1768" text-anchor="end">1</text><text x="309.2857142857143" y="1768" text-anchor="end">2</text><text x="387.85714285714283" y="1768" text-anchor="end">3</text><text x="466.42857142857144" y="1768" text-anchor="end">4</text><text x="545" y="1768" text-anchor="end">5</text><rect x="5" y="1837.5" height="1" width="550" fill="grey"/><text x="5" y="1919" text-anchor="start">Week 32</text><text x="73.57142857142857" y="1855.5" text-anchor="end">6</text><text x="152.14285714285714" y="1855.5" text-anchor="end">7</text><text x="230.71428571428572" y="1855.5" text-anchor="end">8</text><text x="309.2857142857143" y="1855.5" text-anchor="end">9</text><text x="387.85714285714283" y="1855.5" text-anchor="end">10</text><text x="466.42857142857144" y="1855.5" text-anchor="end">11</text><text x="545" y="1855.5" text-anchor="end">12</text><rect x="5" y="1925" height="1" width="550" fill="grey"/><text x="5" y="2006.5" text-anchor="start">33</text><text x="73.57142857142857" y="1943" text-anchor="end">13</text><text x="152.14285714285714" y="1943" text-anchor="end">14</text><text x="230.71428571428572" y="1943" text-anchor="end">15</text><text x="309.2857142857143" y="1943" text-anchor="end">16</text><text x="387.85714285714283" y="1943" text-anchor="end">17</text><text x="466.42857142857144" y="1943" text-anchor="end">18</text><text x="545" y="1943" text-anchor="end">19</text><rect x="5" y="2012.5" height="1" width="550" fill="grey"/><text x="5" y="2094" text-anchor="start">34</text><text x="73.57142857142857" y="2030.5" text-anchor="end">20</text><text x="152.14285714285714" y="2030.5" text-anchor="end">21</text><text x="230.71428571428572" y="2030.5" text-anchor="end">22</text><text x="309.2857142857143" y="2030.5" text-anchor="end">23</text><text x="387.85714285714283" y="2030.5" text-anchor="end">24</text><text x="466.42857142857144" y="2030.5" text-anchor="end">25</text><text x="545" y="2030.5" text-anchor="end">26</text><rect x="5" y="2100" height="1" width="550" fill="pink"/><text x="5" y="2118" text-anchor="start">Mon</text><text x="83.57142857142857" y="2118" text-anchor="start">Tue</text><text x="162.14285714285714" y="2118" text-anchor="start">Wed</text><text x="240.71428571428572" y="2118" text-anchor="start">Thu</text><text x="319.2857142857143" y="2118" text-anchor="start">Fri</text><text x="397.85714285714283" y="2118" text-anchor="start">Sat</text><text x="476.42857142857144" y="2118" text-anchor="start">Sun</text><text x="5" y="2164" text-anchor="start" font-size="36px">September</text><text x="73.57142857142857" y="2118" text-anchor="end">27</text><text x="152.14285714285714" y="2118" text-anchor="end">28</text><text x="230.71428571428572" y="2118" text-anchor="end">29</text><text x="309.2857142857143" y="2118" text-anchor="end">30</text><text x="387.85714285714283" y="2118" text-anchor="end">31</text><text x="466.42857142857144" y="2118" text-anchor="end">1</text><text x="545" y="2118" text-anchor="end">2</text><rect x="5" y="2170" height="1" width="550" fill="grey"/><text x="5" y="2234" text-anchor="start">Week 36</text><text x="73.57142857142857" y="2188" text-anchor="end">3</text><text x="152.14285714285714" y="2188" text-anchor="end">4</text><text x="230.71428571428572" y="2188" text-anchor="end">5</text><text x="309.2857142857143" y="2188" text-anchor="end">6</text><text x="387.85714285714283" y="2188" text-anchor="end">7</text><text x="466.42857142857144" y="2188" text-anchor="end">8</text><text x="545" y="2188" text-anchor="end">9</text><rect x="5" y="2240" height="1" width="550" fill="grey"/><text x="5" y="2304" text-anchor="start">37</text><text x="73.57142857142857" y="2258" text-anchor="end">10</text><text x="152.14285714285714" y="2258" text-anchor="end">11</text><text x="230.71428571428572" y="2258" text-anchor="end">12</text><text x="309.2857142857143" y="2258" text-anchor="end">13</text><text x="387.85714285714283" y="2258" text-anchor="end">14</text><text x="466.42857142857144" y="2258" text-anchor="end">15</text><text x="545" y="2258" text-anchor="end">16</text><rect x="5" y="2310" height="1" width="550" fill="grey"/><text x="5" y="2374" text-anchor="start">38</text><text x="73.57142857142857" y="2328" text-anchor="end">17</text><text x="152.14285714285714" y="2328" text-anchor="end">18</text><text x="230.71428571428572" y="2328" text-anchor="end">19</text><text x="309.2857142857143" y="2328" text-anchor="end">20</text><text x="387.85714285714283" y="2328" text-anchor="end">21</text><text x="466.42857142857144" y="2328" text-anchor="end">22</text><text x="545" y="2328" text-anchor="end">23</text><rect x="5" y="2380" height="1" width="550" fill="grey"/><text x="5" y="2444" text-anchor="start">39</text><text x="73.57142857142857" y="2398" text-anchor="end">24</text><text x="152.14285714285714" y="2398" text-anchor="end">25</text><text x="230.71428571428572" y="2398" text-anchor="end">26</text><text x="309.2857142857143" y="2398" text-anchor="end">27</text><text x="387.85714285714283" y="2398" text-anchor="end">28</text><text x="466.42857142857144" y="2398" text-anchor="end">29</text><text x="545" y="2398" text-anchor="end">30</text><rect x="5" y="2450" height="1" width="550" fill="pink"/><text x="5" y="2468" text-anchor="start">Mon</text><text x="83.57142857142857" y="2468" text-anchor="start">Tue</text><text x="162.14285714285714" y="2468" text-anchor="start">Wed</text><text x="240.71428571428572" y="2468" text-anchor="start">Thu</text><text x="319.2857142857143" y="2468" text-anchor="start">Fri</text><text x="397.85714285714283" y="2468" text-anchor="start">Sat</text><text x="476.42857142857144" y="2468" text-anchor="start">Sun</text><text x="5" y="2531.5" text-anchor="start" font-size="36px">October</text><text x="73.57142857142857" y="2468" text-anchor="end">1</text><text x="152.14285714285714" y="2468" text-anchor="end">2</text><text x="230.71428571428572" y="2468" text-anchor="end">3</text><text x="309.2857142857143" y="2468" text-anchor="end">4</text><text x="387.85714285714283" y="2468" text-anchor="end">5</text><text x="466.42857142857144" y="2468" text-anchor="end">6</text><text x="545" y="2468" text-anchor="end">7</text><rect x="5" y="2537.5" height="1" width="550" fill="grey"/><text x="5" y="2619" text-anchor="start">Week 41</text><text x="73.57142857142857" y="2555.5" text-anchor="end">8</text><text x="152.14285714285714" y="2555.5" text-anchor="end">9</text><text x="230.71428571428572" y="2555.5" text-anchor="end">10</text><text x="309.2857142857143" y="2555.5" text-anchor="end">11</text><text x="387.85714285714283" y="2555.5" text-anchor="end">12</text><text x="466.42857142857144" y="2555.5" text-anchor="end">13</text><text x="545" y="2555.5" text-anchor="end">14</text><rect x="5" y="2625" height="1" width="550" fill="grey"/><text x="5" y="2706.5" text-anchor="start">42</text><text x="73.57142857142857" y="2643" text-anchor="end">15</text><text x="152.14285714285714" y="2643" text-anchor="end">16</text><text x="230.71428571428572" y="2643" text-anchor="end">17</text><text x="309.2857142857143" y="2643" text-anchor="end">18</text><text x="387.85714285714283" y="2643" text-anchor="end">19</text><text x="466.42857142857144" y="2643" text-anchor="end">20</text><text x="545" y="2643" text-anchor="end">21</text><rect x="5" y="2712.5" height="1" width="550" fill="grey"/><text x="5" y="2794" text-anchor="start">43</text><text x="73.57142857142857" y="2730.5" text-anchor="end">22</text><text x="152.14285714285714" y="2730.5" text-anchor="end">23</text><text x="230.71428571428572" y="2730.5" text-anchor="end">24</text><text x="309.2857142857143" y="2730.5" text-anchor="end">25</text><text x="387.85714285714283" y="2730.5" text-anchor="end">26</text><text x="466.42857142857144" y="2730.5" text-anchor="end">27</text><text x="545" y="2730.5" text-anchor="end">28</text><rect x="5" y="2800" height="1" width="550" fill="pink"/><text x="5" y="2818" text-anchor="start">Mon</text><text x="83.57142857142857" y="2818" text-anchor="start">Tue</text><text x="162.14285714285714" y="2818" text-anchor="start">Wed</text><text x="240.71428571428572" y="2818" text-anchor="start">Thu</text><text x="319.2857142857143" y="2818" text-anchor="start">Fri</text><text x="397.85714285714283" y="2818" text-anchor="start">Sat</text><text x="476.42857142857144" y="2818" text-anchor="start">Sun</text><text x="5" y="2881.5" text-anchor="start" font-size="36px">November</text><text x="73.57142857142857" y="2818" text-anchor="end">29</text><text x="152.14285714285714" y="2818" text-anchor="end">30</text><text x="230.71428571428572" y="2818" text-anchor="end">31</text><text x="309.2857142857143" y="2818" text-anchor="end">1</text><text x="387.85714285714283" y="2818" text-anchor="end">2</text><text x="466.42857142857144" y="2818" text-anchor="end">3</text><text x="545" y="2818" text-anchor="end">4</text><rect x="5" y="2887.5" height="1" width="550" fill="grey"/><text x="5" y="2969" text-anchor="start">Week 45</text><text x="73.57142857142857" y="2905.5" text-anchor="end">5</text><text x="152.14285714285714" y="2905.5" text-anchor="end">6</text><text x="230.71428571428572" y="2905.5" text-anchor="end">7</text><text x="309.2857142857143" y="2905.5" text-anchor="end">8</text><text x="387.85714285714283" y="2905.5" text-anchor="end">9</text><text x="466.42857142857144" y="2905.5" text-anchor="end">10</text><text x="545" y="2905.5" text-anchor="end">11</text><rect x="5" y="2975" height="1" width="550" fill="grey"/><text x="5" y="3056.5" text-anchor="start">46</text><text x="73.57142857142857" y="2993" text-anchor="end">12</text><text x="152.14285714285714" y="2993" text-anchor="end">13</text><text x="230.71428571428572" y="2993" text-anchor="end">14</text><text x="309.2857142857143" y="2993" text-anchor="end">15</text><text x="387.85714285714283" y="2993" text-anchor="end">16</text><text x="466.42857142857144" y="2993" text-anchor="end">17</text><text x="545" y="2993" text-anchor="end">18</text><rect x="5" y="3062.5" height="1" width="550" fill="grey"/><text x="5" y="3144" text-anchor="start">47</text><text x="73.57142857142857" y="3080.5" text-anchor="end">19</text><text x="152.14285714285714" y="3080.5" text-anchor="end">20</text><text x="230.71428571428572" y="3080.5" text-anchor="end">21</text><text x="309.2857142857143" y="3080.5" text-anchor="end">22</text><text x="387.85714285714283" y="3080.5" text-anchor="end">23</text><text x="466.42857142857144" y="3080.5" text-anchor="end">24</text><text x="545" y="3080.5" text-anchor="end">25</text><rect x="5" y="3150" height="1" width="550" fill="pink"/><text x="5" y="3168" text-anchor="start">Mon</text><text x="83.57142857142857" y="3168" text-anchor="start">Tue</text><text x="162.14285714285714" y="3168" text-anchor="start">Wed</text><text x="240.71428571428572" y="3168" text-anchor="start">Thu</text><text x="319.2857142857143" y="3168" text-anchor="start">Fri</text><text x="397.85714285714283" y="3168" text-anchor="start">Sat</text><text x="476.42857142857144" y="3168" text-anchor="start">Sun</text><text x="5" y="3214" text-anchor="start" font-size="36px">December</text><text x="73.57142857142857" y="3168" text-anchor="end">26</text><text x="152.14285714285714" y="3168" text-anchor="end">27</text><text x="230.71428571428572" y="3168" text-anchor="end">28</text><text x="309.2857142857143" y="3168" text-anchor="end">29</text><text x="387.85714285714283" y="3168" text-anchor="end">30</text><text x="466.42857142857144" y="3168" text-anchor="end">1</text><text x="545" y="3168" text-anchor="end">2</text><rect x="5" y="3220" height="1" width="550" fill="grey"/><text x="5" y="3284" text-anchor="start">Week 49</text><text x="73.57142857142857" y="3238" text-anchor="end">3</text><text x="152.14285714285714" y="3238" text-anchor="end">4</text><text x="230.71428571428572" y="3238" text-anchor="end">5</text><text x="309.2857142857143" y="3238" text-anchor="end">6</text><text x="387.85714285714283" y="3238" text-anchor="end">7</text><text x="466.42857142857144" y="3238" text-anchor="end">8</text><text x="545" y="3238" text-anchor="end">9</text><rect x="5" y="3290" height="1" width="550" fill="grey"/><text x="5" y="3354" text-anchor="start">50</text><text x="73.57142857142857" y="3308" text-anchor="end">10</text><text x="152.14285714285714" y="3308" text-anchor="end">11</text><text x="230.71428571428572" y="3308" text-anchor="end">12</text><text x="309.2857142857143" y="3308" text-anchor="end">13</text><text x="387.85714285714283" y="3308" text-anchor="end">14</text><text x="466.42857142857144" y="3308" text-anchor="end">15</text><text x="545" y="3308" text-anchor="end">16</text><rect x="5" y="3360" height="1" width="550" fill="grey"/><text x="5" y="3424" text-anchor="start">51</text><text x="73.57142857142857" y="3378" text-anchor="end">17</text><text x="152.14285714285714" y="3378" text-anchor="end">18</text><text x="230.71428571428572" y="3378" text-anchor="end">19</text><text x="309.2857142857143" y="3378" text-anchor="end">20</text><text x="387.85714285714283" y="3378" text-anchor="end">21</text><text x="466.42857142857144" y="3378" text-anchor="end">22</text><text x="545" y="3378" text-anchor="end">23</text><rect x="5" y="3430" height="1" width="550" fill="grey"/><text x="5" y="3494" text-anchor="start">52</text><text x="73.57142857142857" y="3448" text-anchor="end">24</text><text x="152.14285714285714" y="3448" text-anchor="end">25</text><text x="230.71428571428572" y="3448" text-anchor="end">26</text><text x="309.2857142857143" y="3448" text-anchor="end">27</text><text x="387.85714285714283" y="3448" text-anchor="end">28</text><text x="466.42857142857144" y="3448" text-anchor="end">29</text><text x="545" y="3448" text-anchor="end">30</text><rect x="5" y="3500" height="1" width="550" fill="pink"/><text x="5" y="3518" text-anchor="start">Mon</text><text x="83.57142857142857" y="3518" text-anchor="start">Tue</text><text x="162.14285714285714" y="3518" text-anchor="start">Wed</text><text x="240.71428571428572" y="3518" text-anchor="start">Thu</text><text x="319.2857142857143" y="3518" text-anchor="start">Fri</text><text x="397.85714285714283" y="3518" text-anchor="start">Sat</text><text x="476.42857142857144" y="3518" text-anchor="start">Sun</text><text x="5" y="3581.5" text-anchor="start" font-size="36px">January</text><text x="73.57142857142857" y="3518" text-anchor="end">31</text><text x="152.14285714285714" y="3518" text-anchor="end">1</text><text x="230.71428571428572" y="3518" text-anchor="end">2</text><text x="309.2857142857143" y="3518" text-anchor="end">3</text><text x="387.85714285714283" y="3518" text-anchor="end">4</text><text x="466.42857142857144" y="3518" text-anchor="end">5</text><text x="545" y="3518" text-anchor="end">6</text><rect x="5" y="3587.5" height="1" width="550" fill="grey"/><text x="5" y="3669" text-anchor="start">Week 2</text><text x="73.57142857142857" y="3605.5" text-anchor="end">7</text><text x="152.14285714285714" y="3605.5" text-anchor="end">8</text><text x="230.71428571428572" y="3605.5" text-anchor="end">9</text><text x="309.2857142857143" y="3605.5" text-anchor="end">10</text><text x="387.85714285714283" y="3605.5" text-anchor="end">11</text><text x="466.42857142857144" y="3605.5" text-anchor="end">12</text><text x="545" y="3605.5" text-anchor="end">13</text><rect x="5" y="3675" height="1" width="550" fill="grey"/><text x="5" y="3756.5" text-anchor="start">3</text><text x="73.57142857142857" y="3693" text-anchor="end">14</text><text x="152.14285714285714" y="3693" text-anchor="end">15</text><text x="230.71428571428572" y="3693" text-anchor="end">16</text><text x="309.2857142857143" y="3693" text-anchor="end">17</text><text x="387.85714285714283" y="3693" text-anchor="end">18</text><text x="466.42857142857144" y="3693" text-anchor="end">19</text><text x="545" y="3693" text-anchor="end">20</text><rect x="5" y="3762.5" height="1" width="550" fill="grey"/><text x="5" y="3844" text-anchor="start">4</text><text x="73.57142857142857" y="3780.5" text-anchor="end">21</text><text x="152.14285714285714" y="3780.5" text-anchor="end">22</text><text x="230.71428571428572" y="3780.5" text-anchor="end">23</text><text x="309.2857142857143" y="3780.5" text-anchor="end">24</text><text x="387.85714285714283" y="3780.5" text-anchor="end">25</text><text x="466.42857142857144" y="3780.5" text-anchor="end">26</text><text x="545" y="3780.5" text-anchor="end">27</text><rect x="5" y="3850" height="1" width="550" fill="pink"/><text x="5" y="3868" text-anchor="start">Mon</text><text x="83.57142857142857" y="3868" text-anchor="start">Tue</text><text x="162.14285714285714" y="3868" text-anchor="start">Wed</text><text x="240.71428571428572" y="3868" text-anchor="start">Thu</text><text x="319.2857142857143" y="3868" text-anchor="start">Fri</text><text x="397.85714285714283" y="3868" text-anchor="start">Sat</text><text x="476.42857142857144" y="3868" text-anchor="start">Sun</text><text x="5" y="3931.5" text-anchor="start" font-size="36px">February</text><text x="73.57142857142857" y="3868" text-anchor="end">28</text><text x="152.14285714285714" y="3868" text-anchor="end">29</text><text x="230.71428571428572" y="3868" text-anchor="end">30</text><text x="309.2857142857143" y="3868" text-anchor="end">31</text><text x="387.85714285714283" y="3868" text-anchor="end">1</text><text x="466.42857142857144" y="3868" text-anchor="end">2</text><text x="545" y="3868" text-anchor="end">3</text><rect x="5" y="3937.5" height="1" width="550" fill="grey"/><text x="5" y="4019" text-anchor="start">Week 6</text><text x="73.57142857142857" y="3955.5" text-anchor="end">4</text><text x="152.14285714285714" y="3955.5" text-anchor="end">5</text><text x="230.71428571428572" y="3955.5" text-anchor="end">6</text><text x="309.2857142857143" y="3955.5" text-anchor="end">7</text><text x="387.85714285714283" y="3955.5" text-anchor="end">8</text><text x="466.42857142857144" y="3955.5" text-anchor="end">9</text><text x="545" y="3955.5" text-anchor="end">10</text><rect x="5" y="4025" height="1" width="550" fill="grey"/><text x="5" y="4106.5" text-anchor="start">7</text><text x="73.57142857142857" y="4043" text-anchor="end">11</text><text x="152.14285714285714" y="4043" text-anchor="end">12</text><text x="230.71428571428572" y="4043" text-anchor="end">13</text><text x="309.2857142857143" y="4043" text-anchor="end">14</text><text x="387.85714285714283" y="4043" text-anchor="end">15</text><text x="466.42857142857144" y="4043" text-anchor="end">16</text><text x="545" y="4043" text-anchor="end">17</text><rect x="5" y="4112.5" height="1" width="550" fill="grey"/><text x="5" y="4194" text-anchor="start">8</text><text x="73.57142857142857" y="4130.5" text-anchor="end">18</text><text x="152.14285714285714" y="4130.5" text-anchor="end">19</text><text x="230.71428571428572" y="4130.5" text-anchor="end">20</text><text x="309.2857142857143" y="4130.5" text-anchor="end">21</text><text x="387.85714285714283" y="4130.5" text-anchor="end">22</text><text x="466.42857142857144" y="4130.5" text-anchor="end">23</text><text x="545" y="4130.5" text-anchor="end">24</text><rect x="5" y="4200" height="1" width="550" fill="pink"/><text x="5" y="4218" text-anchor="start">Mon</text><text x="83.57142857142857" y="4218" text-anchor="start">Tue</text><text x="162.14285714285714" y="4218" text-anchor="start">Wed</text><text x="240.71428571428572" y="4218" text-anchor="start">Thu</text><text x="319.2857142857143" y="4218" text-anchor="start">Fri</text><text x="397.85714285714283" y="4218" text-anchor="start">Sat</text><text x="476.42857142857144" y="4218" text-anchor="start">Sun</text><text x="5" y="4264" text-anchor="start" font-size="36px">March</text><text x="73.57142857142857" y="4218" text-anchor="end">25</text><text x="152.14285714285714" y="4218" text-anchor="end">26</text><text x="230.71428571428572" y="4218" text-anchor="end">27</text><text x="309.2857142857143" y="4218" text-anchor="end">28</text><text x="387.85714285714283" y="4218" text-anchor="end">1</text><text x="466.42857142857144" y="4218" text-anchor="end">2</text><text x="545" y="4218" text-anchor="end">3</text><rect x="5" y="4270" height="1" width="550" fill="grey"/><text x="5" y="4334" text-anchor="start">Week 10</text><text x="73.57142857142857" y="4288" text-anchor="end">4</text><text x="152.14285714285714" y="4288" text-anchor="end">5</text><text x="230.71428571428572" y="4288" text-anchor="end">6</text><text x="309.2857142857143" y="4288" text-anchor="end">7</text><text x="387.85714285714283" y="4288" text-anchor="end">8</text><text x="466.42857142857144" y="4288" text-anchor="end">9</text><text x="545" y="4288" text-anchor="end">10</text><rect x="5" y="4340" height="1" width="550" fill="grey"/><text x="5" y="4404" text-anchor="start">11</text><text x="73.57142857142857" y="4358" text-anchor="end">11</text><text x="152.14285714285714" y="4358" text-anchor="end">12</text><text x="230.71428571428572" y="4358" text-anchor="end">13</text><text x="309.2857142857143" y="4358" text-anchor="end">14</text><text x="387.85714285714283" y="4358" text-anchor="end">15</text><text x="466.42857142857144" y="4358" text-anchor="end">16</text><text x="545" y="4358" text-anchor="end">17</text><rect x="5" y="4410" height="1" width="550" fill="grey"/><text x="5" y="4474" text-anchor="start">12</text><text x="73.57142857142857" y="4428" text-anchor="end">18</text><text x="152.14285714285714" y="4428" text-anchor="end">19</text><text x="230.71428571428572" y="4428" text-anchor="end">20</text><text x="309.2857142857143" y="4428" text-anchor="end">21</text><text x="387.85714285714283" y="4428" text-anchor="end">22</text><text x="466.42857142857144" y="4428" text-anchor="end">23</text><text x="545" y="4428" text-anchor="end">24</text><rect x="5" y="4480" height="1" width="550" fill="grey"/><text x="5" y="4544" text-anchor="start">13</text><text x="73.57142857142857" y="4498" text-anchor="end">25</text><text x="152.14285714285714" y="4498" text-anchor="end">26</text><text x="230.71428571428572" y="4498" text-anchor="end">27</text><text x="309.2857142857143" y="4498" text-anchor="end">28</text><text x="387.85714285714283" y="4498" text-anchor="end">29</text><text x="466.42857142857144" y="4498" text-anchor="end">30</text><text x="545" y="4498" text-anchor="end">31</text><rect x="5" y="4550" height="1" width="550" fill="pink"/><text x="5" y="4568" text-anchor="start">Mon</text><text x="83.57142857142857" y="4568" text-anchor="start">Tue</text><text x="162.14285714285714" y="4568" text-anchor="start">Wed</text><text x="240.71428571428572" y="4568" text-anchor="start">Thu</text><text x="319.2857142857143" y="4568" text-anchor="start">Fri</text><text x="397.85714285714283" y="4568" text-anchor="start">Sat</text><text x="476.42857142857144" y="4568" text-anchor="start">Sun</text><text x="5" y="4614" text-anchor="start" font-size="36px">April</text><text x="73.57142857142857" y="4568" text-anchor="end">1</text><text x="152.14285714285714" y="4568" text-anchor="end">2</text><text x="230.71428571428572" y="4568" text-anchor="end">3</text><text x="309.2857142857143" y="4568" text-anchor="end">4</text><text x="387.85714285714283" y="4568" text-anchor="end">5</text><text x="466.42857142857144" y="4568" text-anchor="end">6</text><text x="545" y="4568" text-anchor="end">7</text><rect x="5" y="4620" height="1" width="550" fill="grey"/><text x="5" y="4684" text-anchor="start">Week 15</text><text x="73.57142857142857" y="4638" text-anchor="end">8</text><text x="152.14285714285714" y="4638" text-anchor="end">9</text><text x="230.71428571428572" y="4638" text-anchor="end">10</text><text x="309.2857142857143" y="4638" text-anchor="end">11</text><text x="387.85714285714283" y="4638" text-anchor="end">12</text><text x="466.42857142857144" y="4638" text-anchor="end">13</text><text x="545" y="4638" text-anchor="end">14</text><rect x="5" y="4690" height="1" width="550" fill="grey"/><text x="5" y="4754" text-anchor="start">16</text><text x="73.57142857142857" y="4708" text-anchor="end">15</text><text x="152.14285714285714" y="4708" text-anchor="end">16</text><text x="230.71428571428572" y="4708" text-anchor="end">17</text><text x="309.2857142857143" y="4708" text-anchor="end">18</text><text x="387.85714285714283" y="4708" text-anchor="end">19</text><text x="466.42857142857144" y="4708" text-anchor="end">20</text><text x="545" y="4708" text-anchor="end">21</text><rect x="5" y="4760" height="1" width="550" fill="grey"/><text x="5" y="4824" text-anchor="start">17</text><text x="73.57142857142857" y="4778" text-anchor="end">22</text><text x="152.14285714285714" y="4778" text-anchor="end">23</text><text x="230.71428571428572" y="4778" text-anchor="end">24</text><text x="309.2857142857143" y="4778" text-anchor="end">25</text><text x="387.85714285714283" y="4778" text-anchor="end">26</text><text x="466.42857142857144" y="4778" text-anchor="end">27</text><text x="545" y="4778" text-anchor="end">28</text><rect x="5" y="4830" height="1" width="550" fill="grey"/><text x="5" y="4894" text-anchor="start">18</text><text x="73.57142857142857" y="4848" text-anchor="end">29</text><text x="152.14285714285714" y="4848" text-anchor="end">30</text><text x="230.71428571428572" y="4848" text-anchor="end">1</text><text x="309.2857142857143" y="4848" text-anchor="end">2</text><text x="387.85714285714283" y="4848" text-anchor="end">3</text><text x="466.42857142857144" y="4848" text-anchor="end">4</text><text x="545" y="4848" text-anchor="end">5</text><rect x="5" y="4900" height="1" width="550" fill="pink"/></svg>